<svg width="210" height="27" viewBox="0 0 210 27" fill="none" xmlns="http://www.w3.org/2000/svg">
<g clip-path="url(#clip0_1001_6118)">
<mask id="mask0_1001_6118" style="mask-type:luminance" maskUnits="userSpaceOnUse" x="0" y="0" width="30" height="27">
<path d="M30 0H0V27H30V0Z" fill="white"/>
</mask>
<g mask="url(#mask0_1001_6118)">
<path d="M26.3619 23.86C21.8384 28.0513 12.8502 28.1965 6.79074 23.3896C5.31933 23.5294 3.13603 24.8171 0.879869 26.2205C2.42135 24.4139 3.64052 22.5723 4.0385 20.6447C-2.68516 12.6062 0.425833 5.14582 3.09399 2.80419C6.23581 0.0512233 10.1203 -0.4784 13.9404 0.371147C11.7963 0.379213 9.48132 1.15079 8.10801 2.57567C4.82325 5.98999 5.92191 12.5229 11.2078 16.7894C16.3423 20.9323 23.5761 19.6876 25.7369 16.7894C29.8765 11.2432 22.7016 5.25604 14.2235 13.859C17.4802 10.2001 20.807 4.7318 18.2033 1.88474C22.0262 3.41446 24.9017 2.95205 27.3765 1.67773C25.636 4.057 25.5632 6.732 27.0906 9.56561C28.6181 12.3992 33.1725 17.5503 26.3619 23.86Z" fill="#3F25FF"/>
</g>
<g clip-path="url(#clip1_1001_6118)">
<path fill-rule="evenodd" clip-rule="evenodd" d="M48.6498 19.6644C53.0455 19.6644 56.6084 18.4148 57.2066 14.6298H52.3634C51.8531 16.1512 50.4325 16.9375 48.6496 16.9375C46.4714 16.9375 44.76 15.7659 44.76 13.511C44.76 11.2561 46.4711 10.0853 48.6496 10.0853C50.4325 10.0853 51.8535 10.8716 52.3634 12.3922H57.2066C56.6084 8.60806 53.0455 7.35849 48.6498 7.35849C43.846 7.35849 40.0063 8.84836 40.0063 13.511C40.0063 18.1737 43.8463 19.6644 48.6498 19.6644ZM66.5447 19.6683C71.3484 19.6683 75.3322 18.1784 75.3322 13.5158C75.3322 8.85309 71.3483 7.36321 66.5447 7.36321C61.741 7.36321 57.7571 8.85309 57.7571 13.5158C57.7571 18.1784 61.7414 19.6683 66.5449 19.6683H66.5447ZM66.5447 10.0901C68.7233 10.0901 70.578 11.2616 70.578 13.5158C70.578 15.7699 68.7226 16.9415 66.5447 16.9415C64.3667 16.9415 62.5113 15.7699 62.5113 13.5158C62.5113 11.2616 64.3667 10.0901 66.5449 10.0901H66.5447ZM86.4367 19.2484L92.5596 7.78158H89.03L84.3479 16.5499L79.6666 7.78237H74.6253L80.7482 19.2491L86.4367 19.2484ZM107.824 19.2444V16.5176H97.8842V14.5952H106.528L106.959 12.2875H97.8842V10.2248H107.824V7.77842H93.13V19.2444H107.824H107.824ZM117.887 15.6131L120.761 19.2491H125.659L122.692 15.4957C124.478 15.0789 125.803 13.5654 125.803 11.6981C125.803 9.49679 124.254 7.78237 121.986 7.78237H109.093V19.2491H113.847V15.6131H117.887H117.887ZM113.846 10.3698H119.825C120.581 10.3698 121.049 10.9646 121.049 11.6981C121.049 11.8727 121.013 12.0456 120.944 12.2068C120.876 12.3681 120.775 12.5146 120.648 12.6379C120.521 12.7613 120.37 12.8591 120.204 12.9257C120.038 12.9924 119.861 13.0266 119.681 13.0265H113.846V10.3698ZM131.662 15.6131H139.802C142.069 15.6131 143.619 13.8987 143.619 11.6981C143.619 9.49758 142.069 7.78237 139.802 7.78237H126.909V19.2491H131.662V15.6131H131.662ZM131.662 10.3698H137.641C138.396 10.3698 138.865 10.9646 138.865 11.6981C138.865 12.4316 138.396 13.0265 137.641 13.0265H131.662V10.3698ZM144.595 7.78237V19.2491H159.288V16.6618H149.348V7.78237H144.595H144.595ZM165.54 7.77842L158.985 19.2444H162.586L163.785 17.1463H171.687L172.886 19.2436H177.784L171.229 7.77685L165.54 7.77842ZM165.225 14.629L167.736 10.2358L170.248 14.629H165.225ZM185.681 19.6644C190.077 19.6644 193.64 18.4148 194.238 14.6298H189.395C188.885 16.1512 187.464 16.9375 185.681 16.9375C183.503 16.9375 181.791 15.7659 181.791 13.511C181.791 11.2561 183.503 10.0853 185.681 10.0853C187.464 10.0853 188.885 10.8716 189.395 12.3922H194.238C193.64 8.60806 190.077 7.35849 185.681 7.35849C180.877 7.35849 177.037 8.84836 177.037 13.511C177.037 18.1737 180.877 19.6644 185.682 19.6644H185.681ZM209.978 19.2444V16.5176H200.038V14.5952H208.681L209.114 12.2875H200.038V10.2248H209.978V7.77842H195.284V19.2444H209.978H209.978Z" fill="black"/>
</g>
</g>
<defs>
<clipPath id="clip0_1001_6118">
<rect width="210" height="27" fill="white"/>
</clipPath>
<clipPath id="clip1_1001_6118">
<rect width="170" height="13" fill="white" transform="translate(40 7)"/>
</clipPath>
</defs>
</svg>
