<svg width="24" height="24" viewBox="0 0 24 24" fill="none" xmlns="http://www.w3.org/2000/svg">
<g clip-path="url(#clip0_4066_45)">
<path d="M5.07108 7.11111H18.9299C19.2823 7.11107 19.6306 7.18724 19.9508 7.33441C20.2711 7.48158 20.5557 7.69626 20.7853 7.96374C21.0148 8.23122 21.1837 8.54516 21.2805 8.88405C21.3774 9.22294 21.3998 9.57876 21.3462 9.92711L19.8123 19.8907C19.6791 20.7565 19.2404 21.5461 18.5754 22.1165C17.9104 22.6868 17.0632 23.0003 16.1872 23H7.81252C6.93668 23 6.08978 22.6864 5.42507 22.1161C4.76036 21.5458 4.32176 20.7563 4.18864 19.8907L2.65475 9.92711C2.60117 9.57876 2.62357 9.22294 2.72039 8.88405C2.81721 8.54516 2.98617 8.23122 3.21568 7.96374C3.44519 7.69626 3.72983 7.48158 4.05009 7.33441C4.37034 7.18724 4.71863 7.11107 5.07108 7.11111Z" stroke="black" stroke-width="1.2" stroke-linecap="round" stroke-linejoin="round"/>
<path d="M8.33289 10.7778V4.66667C8.33289 3.69421 8.71919 2.76157 9.40683 2.07394C10.0945 1.38631 11.0271 0.999999 11.9996 0.999999C12.972 0.999999 13.9046 1.38631 14.5923 2.07394C15.2799 2.76157 15.6662 3.69421 15.6662 4.66667V10.7778" stroke="black" stroke-width="1.2" stroke-linecap="round" stroke-linejoin="round"/>
</g>
<defs>
<clipPath id="clip0_4066_45">
<rect width="24" height="24" fill="white"/>
</clipPath>
</defs>
</svg>
